# xmcd
#
# Track frame offsets:
#	150
#	15051
#	31174
#	49025
#	64688
#	79674
#	93418
#	108577
#	123967
#	139200
#
# Disc length: 2061 seconds
#
# Revision: 0
# Processed by: cddbd v1.5.2PL0 Copyright (c) Steve Scherf et al.
# Submitted via: EasyCDDAExtractor 16.1.0.1
#
DISCID=73080b0a
DTITLE=Bethany Becker - I Want Love
DYEAR=2016
DGENRE=Country
TTITLE0=I Want Love
TTITLE1=Criminal
TTITLE2=Maybe More
TTITLE3=Fighting Us
TTITLE4=Right Place Wrong Time
TTITLE5=Jesus And Boys
TTITLE6=We Can Save Us
TTITLE7=Goodbye
TTITLE8=Raining In Vegas
TTITLE9=Walls
EXTD=
EXTT0=
EXTT1=
EXTT2=
EXTT3=
EXTT4=
EXTT5=
EXTT6=
EXTT7=
EXTT8=
EXTT9=
PLAYORDER=
